STARTFONT 2.1
COMMENT AUTOMATICALLY GENERATED FILE. DO NOT EDIT!
COMMENT Generated with 'ucs2any.pl luBIS08.bdf ../../../fonts/util/map-ISO8859-1 ISO8859-1'
COMMENT from an ISO10646-1 encoded source BDF font.
COMMENT ucs2any.pl by Markus Kuhn <mkuhn@acm.org>, 2000.
COMMENT $Xorg: $
COMMENT ISO10646-1 extension by Markus Kuhn <mkuhn@acm.org>, 2001-03-20
COMMENT  (c) Copyright Bigelow & Holmes 1986, 1985. Lucida is a registered
COMMENT  trademark of Bigelow & Holmes. See LEGAL NOTICE file for terms 
COMMENT  of the license. 
FONT -B&H-Lucida-Bold-I-Normal-Sans-8-80-75-75-P-49-ISO8859-1
SIZE 8 72 72
FONTBOUNDINGBOX 16 10 -6 -2
STARTPROPERTIES 22
COMMENT Begin LogicalFontDescription
FONTNAME_REGISTRY ""
FOUNDRY "B&H"
FAMILY_NAME "Lucida"
WEIGHT_NAME "Bold"
SLANT "I"
SETWIDTH_NAME "Normal"
ADD_STYLE_NAME "Sans"
PIXEL_SIZE 8
POINT_SIZE 80
RESOLUTION_X 75
RESOLUTION_Y 75
SPACING "P"
AVERAGE_WIDTH 49
CHARSET_REGISTRY "ISO8859"
CHARSET_ENCODING "1"
COMMENT END LogicalFontDescription
FONT_ASCENT 7
FONT_DESCENT 2
DEFAULT_CHAR 0
COPYRIGHT "Copyright Bigelow & Holmes 1986, 1985."
FACE_NAME "Lucida Sans Bold Italic"
X_HEIGHT 4
CAP_HEIGHT 6
ENDPROPERTIES
CHARS 192
STARTCHAR defaultchar
ENCODING 0
SWIDTH 813 0
DWIDTH 7 0
BBX 5 5 1 0
BITMAP
A8
00
88
00
A8
ENDCHAR
STARTCHAR space
ENCODING 32
SWIDTH 343 0
DWIDTH 3 0
BBX 1 1 0 0
BITMAP
00
ENDCHAR
STARTCHAR exclam
ENCODING 33
SWIDTH 343 0
DWIDTH 3 0
BBX 3 6 0 0
BITMAP
60
60
40
40
00
C0
ENDCHAR
STARTCHAR quotedbl
ENCODING 34
SWIDTH 530 0
DWIDTH 4 0
BBX 4 2 1 4
BITMAP
90
90
ENDCHAR
STARTCHAR numbersign
ENCODING 35
SWIDTH 687 0
DWIDTH 5 0
BBX 5 6 1 0
BITMAP
38
28
F8
50
F8
E0
ENDCHAR
STARTCHAR dollar
ENCODING 36
SWIDTH 687 0
DWIDTH 5 0
BBX 5 9 1 -2
BITMAP
10
38
60
60
30
30
F0
40
40
ENDCHAR
STARTCHAR percent
ENCODING 37
SWIDTH 908 0
DWIDTH 7 0
BBX 7 6 1 0
BITMAP
46
A8
B0
E0
46
8E
ENDCHAR
STARTCHAR ampersand
ENCODING 38
SWIDTH 816 0
DWIDTH 7 0
BBX 6 6 1 0
BITMAP
38
28
74
94
98
78
ENDCHAR
STARTCHAR quotesingle
ENCODING 39
SWIDTH 265 0
DWIDTH 2 0
BBX 2 3 1 3
BITMAP
C0
80
80
ENDCHAR
STARTCHAR parenleft
ENCODING 40
SWIDTH 386 0
DWIDTH 3 0
BBX 3 8 1 -2
BITMAP
20
40
C0
80
80
80
80
80
ENDCHAR
STARTCHAR parenright
ENCODING 41
SWIDTH 386 0
DWIDTH 3 0
BBX 3 8 0 -2
BITMAP
40
20
20
20
60
40
40
80
ENDCHAR
STARTCHAR asterisk
ENCODING 42
SWIDTH 464 0
DWIDTH 4 0
BBX 3 3 1 3
BITMAP
40
A0
E0
ENDCHAR
STARTCHAR plus
ENCODING 43
SWIDTH 687 0
DWIDTH 5 0
BBX 5 5 1 0
BITMAP
10
10
F8
40
40
ENDCHAR
STARTCHAR comma
ENCODING 44
SWIDTH 343 0
DWIDTH 3 0
BBX 2 3 0 -2
BITMAP
C0
40
80
ENDCHAR
STARTCHAR hyphen
ENCODING 45
SWIDTH 289 0
DWIDTH 2 0
BBX 2 1 1 2
BITMAP
C0
ENDCHAR
STARTCHAR period
ENCODING 46
SWIDTH 343 0
DWIDTH 3 0
BBX 2 1 1 0
BITMAP
C0
ENDCHAR
STARTCHAR slash
ENCODING 47
SWIDTH 596 0
DWIDTH 5 0
BBX 6 8 0 -2
BITMAP
04
08
10
10
20
20
40
80
ENDCHAR
STARTCHAR zero
ENCODING 48
SWIDTH 687 0
DWIDTH 5 0
BBX 4 6 1 0
BITMAP
70
50
90
90
B0
60
ENDCHAR
STARTCHAR one
ENCODING 49
SWIDTH 687 0
DWIDTH 5 0
BBX 3 6 2 0
BITMAP
E0
60
40
40
C0
C0
ENDCHAR
STARTCHAR two
ENCODING 50
SWIDTH 687 0
DWIDTH 5 0
BBX 5 6 1 0
BITMAP
78
08
18
20
40
F0
ENDCHAR
STARTCHAR three
ENCODING 51
SWIDTH 687 0
DWIDTH 5 0
BBX 5 6 1 0
BITMAP
78
08
70
10
18
F0
ENDCHAR
STARTCHAR four
ENCODING 52
SWIDTH 687 0
DWIDTH 5 0
BBX 5 6 0 0
BITMAP
18
38
50
F8
10
30
ENDCHAR
STARTCHAR five
ENCODING 53
SWIDTH 687 0
DWIDTH 5 0
BBX 5 6 1 0
BITMAP
78
40
60
10
10
E0
ENDCHAR
STARTCHAR six
ENCODING 54
SWIDTH 687 0
DWIDTH 5 0
BBX 5 6 1 0
BITMAP
38
40
F0
88
90
70
ENDCHAR
STARTCHAR seven
ENCODING 55
SWIDTH 687 0
DWIDTH 5 0
BBX 5 6 1 0
BITMAP
F8
10
20
60
40
80
ENDCHAR
STARTCHAR eight
ENCODING 56
SWIDTH 687 0
DWIDTH 5 0
BBX 5 6 1 0
BITMAP
38
48
70
D8
88
F0
ENDCHAR
STARTCHAR nine
ENCODING 57
SWIDTH 687 0
DWIDTH 5 0
BBX 5 6 1 0
BITMAP
70
48
88
78
10
E0
ENDCHAR
STARTCHAR colon
ENCODING 58
SWIDTH 343 0
DWIDTH 3 0
BBX 2 4 1 0
BITMAP
C0
00
00
C0
ENDCHAR
STARTCHAR semicolon
ENCODING 59
SWIDTH 343 0
DWIDTH 3 0
BBX 3 6 0 -2
BITMAP
60
00
00
C0
40
C0
ENDCHAR
STARTCHAR less
ENCODING 60
SWIDTH 687 0
DWIDTH 5 0
BBX 5 5 0 0
BITMAP
08
30
C0
60
10
ENDCHAR
STARTCHAR equal
ENCODING 61
SWIDTH 687 0
DWIDTH 5 0
BBX 5 3 1 1
BITMAP
F8
00
F8
ENDCHAR
STARTCHAR greater
ENCODING 62
SWIDTH 687 0
DWIDTH 5 0
BBX 6 5 1 0
BITMAP
20
38
04
78
80
ENDCHAR
STARTCHAR question
ENCODING 63
SWIDTH 539 0
DWIDTH 4 0
BBX 4 6 1 0
BITMAP
F0
10
20
C0
00
C0
ENDCHAR
STARTCHAR at
ENCODING 64
SWIDTH 833 0
DWIDTH 7 0
BBX 5 6 1 0
BITMAP
38
C8
F8
B8
F8
70
ENDCHAR
STARTCHAR A
ENCODING 65
SWIDTH 771 0
DWIDTH 6 0
BBX 6 6 0 0
BITMAP
18
28
28
3C
4C
8C
ENDCHAR
STARTCHAR B
ENCODING 66
SWIDTH 660 0
DWIDTH 5 0
BBX 5 6 1 0
BITMAP
78
48
70
D0
C8
F0
ENDCHAR
STARTCHAR C
ENCODING 67
SWIDTH 737 0
DWIDTH 6 0
BBX 6 6 1 0
BITMAP
3C
40
80
80
C0
78
ENDCHAR
STARTCHAR D
ENCODING 68
SWIDTH 822 0
DWIDTH 7 0
BBX 6 6 1 0
BITMAP
7C
64
44
C4
C8
F0
ENDCHAR
STARTCHAR E
ENCODING 69
SWIDTH 642 0
DWIDTH 5 0
BBX 5 6 1 0
BITMAP
78
40
70
C0
C0
F0
ENDCHAR
STARTCHAR F
ENCODING 70
SWIDTH 614 0
DWIDTH 5 0
BBX 5 6 1 0
BITMAP
78
40
40
F0
C0
C0
ENDCHAR
STARTCHAR G
ENCODING 71
SWIDTH 755 0
DWIDTH 6 0
BBX 6 6 1 0
BITMAP
3C
40
80
88
98
78
ENDCHAR
STARTCHAR H
ENCODING 72
SWIDTH 813 0
DWIDTH 7 0
BBX 6 6 1 0
BITMAP
6C
4C
7C
C8
C8
D8
ENDCHAR
STARTCHAR I
ENCODING 73
SWIDTH 361 0
DWIDTH 3 0
BBX 3 6 1 0
BITMAP
60
60
40
40
C0
C0
ENDCHAR
STARTCHAR J
ENCODING 74
SWIDTH 502 0
DWIDTH 4 0
BBX 5 8 0 -2
BITMAP
18
18
18
10
30
30
30
E0
ENDCHAR
STARTCHAR K
ENCODING 75
SWIDTH 753 0
DWIDTH 6 0
BBX 5 6 1 0
BITMAP
58
50
60
E0
D0
98
ENDCHAR
STARTCHAR L
ENCODING 76
SWIDTH 623 0
DWIDTH 5 0
BBX 4 6 1 0
BITMAP
40
40
40
C0
C0
F0
ENDCHAR
STARTCHAR M
ENCODING 77
SWIDTH 940 0
DWIDTH 8 0
BBX 7 6 1 0
BITMAP
66
66
6E
F4
B4
A4
ENDCHAR
STARTCHAR N
ENCODING 78
SWIDTH 789 0
DWIDTH 6 0
BBX 6 6 1 0
BITMAP
44
64
6C
D8
98
88
ENDCHAR
STARTCHAR O
ENCODING 79
SWIDTH 855 0
DWIDTH 7 0
BBX 5 6 1 0
BITMAP
38
48
88
88
98
70
ENDCHAR
STARTCHAR P
ENCODING 80
SWIDTH 645 0
DWIDTH 5 0
BBX 5 6 1 0
BITMAP
78
48
48
F0
C0
C0
ENDCHAR
STARTCHAR Q
ENCODING 81
SWIDTH 855 0
DWIDTH 7 0
BBX 6 8 1 -2
BITMAP
38
48
88
88
98
70
18
0C
ENDCHAR
STARTCHAR R
ENCODING 82
SWIDTH 708 0
DWIDTH 6 0
BBX 5 6 1 0
BITMAP
78
48
50
E0
D0
90
ENDCHAR
STARTCHAR S
ENCODING 83
SWIDTH 639 0
DWIDTH 5 0
BBX 5 6 1 0
BITMAP
38
40
60
10
18
F0
ENDCHAR
STARTCHAR T
ENCODING 84
SWIDTH 747 0
DWIDTH 6 0
BBX 6 6 1 0
BITMAP
FC
30
20
20
60
60
ENDCHAR
STARTCHAR U
ENCODING 85
SWIDTH 759 0
DWIDTH 6 0
BBX 6 6 1 0
BITMAP
4C
4C
C8
88
98
70
ENDCHAR
STARTCHAR V
ENCODING 86
SWIDTH 765 0
DWIDTH 6 0
BBX 6 6 1 0
BITMAP
C4
C8
D8
50
60
60
ENDCHAR
STARTCHAR W
ENCODING 87
SWIDTH 991 0
DWIDTH 8 0
BBX 7 6 2 0
BITMAP
96
B4
94
98
D0
90
ENDCHAR
STARTCHAR X
ENCODING 88
SWIDTH 696 0
DWIDTH 6 0
BBX 6 7 0 -1
BITMAP
6C
28
30
30
50
58
80
ENDCHAR
STARTCHAR Y
ENCODING 89
SWIDTH 681 0
DWIDTH 5 0
BBX 5 6 1 0
BITMAP
98
50
60
60
40
40
ENDCHAR
STARTCHAR Z
ENCODING 90
SWIDTH 687 0
DWIDTH 5 0
BBX 6 6 0 0
BITMAP
7C
08
10
20
40
F8
ENDCHAR
STARTCHAR bracketleft
ENCODING 91
SWIDTH 386 0
DWIDTH 3 0
BBX 4 8 0 -2
BITMAP
30
60
60
40
40
40
C0
E0
ENDCHAR
STARTCHAR backslash
ENCODING 92
SWIDTH 566 0
DWIDTH 5 0
BBX 3 8 1 -2
BITMAP
80
80
40
40
40
40
20
20
ENDCHAR
STARTCHAR bracketright
ENCODING 93
SWIDTH 386 0
DWIDTH 3 0
BBX 4 8 0 -2
BITMAP
70
30
20
20
20
60
60
C0
ENDCHAR
STARTCHAR asciicircum
ENCODING 94
SWIDTH 687 0
DWIDTH 5 0
BBX 5 4 0 1
BITMAP
30
30
50
C8
ENDCHAR
STARTCHAR underscore
ENCODING 95
SWIDTH 500 0
DWIDTH 4 0
BBX 4 1 0 -2
BITMAP
F0
ENDCHAR
STARTCHAR grave
ENCODING 96
SWIDTH 663 0
DWIDTH 5 0
BBX 2 1 3 5
BITMAP
C0
ENDCHAR
STARTCHAR a
ENCODING 97
SWIDTH 681 0
DWIDTH 5 0
BBX 5 4 1 0
BITMAP
78
D8
B0
D0
ENDCHAR
STARTCHAR b
ENCODING 98
SWIDTH 681 0
DWIDTH 5 0
BBX 5 6 1 0
BITMAP
60
60
78
E8
F8
F0
ENDCHAR
STARTCHAR c
ENCODING 99
SWIDTH 548 0
DWIDTH 4 0
BBX 4 4 1 0
BITMAP
70
80
80
E0
ENDCHAR
STARTCHAR d
ENCODING 100
SWIDTH 681 0
DWIDTH 5 0
BBX 5 6 1 0
BITMAP
18
18
78
D0
B0
F0
ENDCHAR
STARTCHAR e
ENCODING 101
SWIDTH 612 0
DWIDTH 5 0
BBX 4 4 1 0
BITMAP
70
E0
D0
F0
ENDCHAR
STARTCHAR f
ENCODING 102
SWIDTH 464 0
DWIDTH 4 0
BBX 5 8 0 -2
BITMAP
38
60
F0
60
40
40
C0
C0
ENDCHAR
STARTCHAR g
ENCODING 103
SWIDTH 674 0
DWIDTH 5 0
BBX 5 6 1 -2
BITMAP
38
58
90
F0
90
E0
ENDCHAR
STARTCHAR h
ENCODING 104
SWIDTH 675 0
DWIDTH 5 0
BBX 5 6 1 0
BITMAP
60
60
58
78
D0
D0
ENDCHAR
STARTCHAR i
ENCODING 105
SWIDTH 343 0
DWIDTH 3 0
BBX 3 6 0 0
BITMAP
60
00
60
40
C0
C0
ENDCHAR
STARTCHAR j
ENCODING 106
SWIDTH 407 0
DWIDTH 3 0
BBX 5 8 0 -2
BITMAP
18
00
10
10
10
30
20
E0
ENDCHAR
STARTCHAR k
ENCODING 107
SWIDTH 666 0
DWIDTH 5 0
BBX 5 6 1 0
BITMAP
60
40
48
D0
F0
D0
ENDCHAR
STARTCHAR l
ENCODING 108
SWIDTH 343 0
DWIDTH 3 0
BBX 3 6 0 0
BITMAP
60
60
40
40
C0
C0
ENDCHAR
STARTCHAR m
ENCODING 109
SWIDTH 991 0
DWIDTH 8 0
BBX 7 4 1 0
BITMAP
76
7A
DC
B4
ENDCHAR
STARTCHAR n
ENCODING 110
SWIDTH 675 0
DWIDTH 5 0
BBX 5 4 1 0
BITMAP
58
78
D0
D0
ENDCHAR
STARTCHAR o
ENCODING 111
SWIDTH 663 0
DWIDTH 5 0
BBX 4 4 1 0
BITMAP
70
90
90
E0
ENDCHAR
STARTCHAR p
ENCODING 112
SWIDTH 681 0
DWIDTH 5 0
BBX 5 6 0 -2
BITMAP
78
68
58
F0
C0
C0
ENDCHAR
STARTCHAR q
ENCODING 113
SWIDTH 681 0
DWIDTH 5 0
BBX 5 6 1 -2
BITMAP
78
D8
B8
D0
10
30
ENDCHAR
STARTCHAR r
ENCODING 114
SWIDTH 542 0
DWIDTH 4 0
BBX 4 4 1 0
BITMAP
70
C0
C0
80
ENDCHAR
STARTCHAR s
ENCODING 115
SWIDTH 527 0
DWIDTH 4 0
BBX 4 4 0 0
BITMAP
70
40
30
E0
ENDCHAR
STARTCHAR t
ENCODING 116
SWIDTH 437 0
DWIDTH 3 0
BBX 3 6 1 0
BITMAP
40
40
E0
C0
80
E0
ENDCHAR
STARTCHAR u
ENCODING 117
SWIDTH 675 0
DWIDTH 5 0
BBX 5 4 1 0
BITMAP
58
58
F0
D0
ENDCHAR
STARTCHAR v
ENCODING 118
SWIDTH 630 0
DWIDTH 5 0
BBX 5 4 1 0
BITMAP
D8
D0
60
60
ENDCHAR
STARTCHAR w
ENCODING 119
SWIDTH 878 0
DWIDTH 7 0
BBX 7 4 1 0
BITMAP
BA
AC
AC
C8
ENDCHAR
STARTCHAR x
ENCODING 120
SWIDTH 563 0
DWIDTH 5 0
BBX 5 4 0 0
BITMAP
78
30
70
F0
ENDCHAR
STARTCHAR y
ENCODING 121
SWIDTH 633 0
DWIDTH 5 0
BBX 6 6 0 -2
BITMAP
44
68
68
70
20
C0
ENDCHAR
STARTCHAR z
ENCODING 122
SWIDTH 630 0
DWIDTH 5 0
BBX 5 4 0 0
BITMAP
78
10
40
F8
ENDCHAR
STARTCHAR braceleft
ENCODING 123
SWIDTH 386 0
DWIDTH 3 0
BBX 3 8 1 -2
BITMAP
60
40
40
C0
C0
C0
C0
C0
ENDCHAR
STARTCHAR bar
ENCODING 124
SWIDTH 259 0
DWIDTH 2 0
BBX 2 8 1 -2
BITMAP
40
40
80
80
80
80
80
80
ENDCHAR
STARTCHAR braceright
ENCODING 125
SWIDTH 386 0
DWIDTH 3 0
BBX 3 8 0 -2
BITMAP
60
60
60
60
60
40
40
C0
ENDCHAR
STARTCHAR asciitilde
ENCODING 126
SWIDTH 687 0
DWIDTH 5 0
BBX 5 2 1 1
BITMAP
E8
B8
ENDCHAR
STARTCHAR space
ENCODING 160
SWIDTH 343 0
DWIDTH 3 0
BBX 1 1 0 0
BITMAP
00
ENDCHAR
STARTCHAR exclamdown
ENCODING 161
SWIDTH 343 0
DWIDTH 3 0
BBX 3 6 0 -2
BITMAP
60
00
40
40
C0
C0
ENDCHAR
STARTCHAR cent
ENCODING 162
SWIDTH 687 0
DWIDTH 5 0
BBX 4 6 1 0
BITMAP
20
70
80
80
F0
40
ENDCHAR
STARTCHAR sterling
ENCODING 163
SWIDTH 687 0
DWIDTH 5 0
BBX 5 6 1 0
BITMAP
38
20
70
60
40
F0
ENDCHAR
STARTCHAR currency
ENCODING 164
SWIDTH 687 0
DWIDTH 5 0
BBX 6 6 0 0
BITMAP
44
24
78
48
78
88
ENDCHAR
STARTCHAR yen
ENCODING 165
SWIDTH 687 0
DWIDTH 5 0
BBX 5 6 1 0
BITMAP
D8
50
60
F0
E0
40
ENDCHAR
STARTCHAR brokenbar
ENCODING 166
SWIDTH 259 0
DWIDTH 2 0
BBX 2 8 1 -2
BITMAP
40
40
40
00
00
80
80
80
ENDCHAR
STARTCHAR section
ENCODING 167
SWIDTH 687 0
DWIDTH 5 0
BBX 5 8 1 -2
BITMAP
38
60
70
58
70
70
10
F0
ENDCHAR
STARTCHAR dieresis
ENCODING 168
SWIDTH 663 0
DWIDTH 5 0
BBX 3 1 2 5
BITMAP
A0
ENDCHAR
STARTCHAR copyright
ENCODING 169
SWIDTH 834 0
DWIDTH 7 0
BBX 6 6 1 0
BITMAP
78
BC
C4
C4
B4
78
ENDCHAR
STARTCHAR ordfeminine
ENCODING 170
SWIDTH 539 0
DWIDTH 4 0
BBX 4 3 1 3
BITMAP
70
B0
E0
ENDCHAR
STARTCHAR guillemotleft
ENCODING 171
SWIDTH 633 0
DWIDTH 5 0
BBX 5 4 1 0
BITMAP
28
50
F0
50
ENDCHAR
STARTCHAR logicalnot
ENCODING 172
SWIDTH 687 0
DWIDTH 5 0
BBX 5 3 1 1
BITMAP
F8
08
08
ENDCHAR
STARTCHAR hyphen
ENCODING 173
SWIDTH 289 0
DWIDTH 2 0
BBX 2 1 1 2
BITMAP
C0
ENDCHAR
STARTCHAR registered
ENCODING 174
SWIDTH 691 0
DWIDTH 5 0
BBX 4 4 3 2
BITMAP
70
B0
B0
70
ENDCHAR
STARTCHAR macron
ENCODING 175
SWIDTH 663 0
DWIDTH 5 0
BBX 3 1 2 5
BITMAP
E0
ENDCHAR
STARTCHAR degree
ENCODING 176
SWIDTH 241 0
DWIDTH 2 0
BBX 1 2 3 4
BITMAP
80
80
ENDCHAR
STARTCHAR plusminus
ENCODING 177
SWIDTH 687 0
DWIDTH 5 0
BBX 5 5 1 0
BITMAP
10
F8
20
20
F8
ENDCHAR
STARTCHAR twosuperior
ENCODING 178
SWIDTH 539 0
DWIDTH 3 0
BBX 3 3 -5 3
BITMAP
60
60
E0
ENDCHAR
STARTCHAR threesuperior
ENCODING 179
SWIDTH 539 0
DWIDTH 3 0
BBX 3 3 -5 3
BITMAP
60
40
E0
ENDCHAR
STARTCHAR acute
ENCODING 180
SWIDTH 663 0
DWIDTH 5 0
BBX 2 1 3 5
BITMAP
C0
ENDCHAR
STARTCHAR mu
ENCODING 181
SWIDTH 681 0
DWIDTH 5 0
BBX 5 6 1 -2
BITMAP
58
58
70
D0
C0
C0
ENDCHAR
STARTCHAR paragraph
ENCODING 182
SWIDTH 687 0
DWIDTH 5 0
BBX 4 8 1 -2
BITMAP
F0
D0
D0
60
60
60
60
A0
ENDCHAR
STARTCHAR periodcentered
ENCODING 183
SWIDTH 343 0
DWIDTH 5 0
BBX 1 1 3 2
BITMAP
80
ENDCHAR
STARTCHAR cedilla
ENCODING 184
SWIDTH 663 0
DWIDTH 5 0
BBX 2 2 2 -2
BITMAP
C0
C0
ENDCHAR
STARTCHAR onesuperior
ENCODING 185
SWIDTH 539 0
DWIDTH 3 0
BBX 2 3 -6 3
BITMAP
C0
40
80
ENDCHAR
STARTCHAR ordmasculine
ENCODING 186
SWIDTH 539 0
DWIDTH 4 0
BBX 4 3 1 3
BITMAP
70
90
E0
ENDCHAR
STARTCHAR guillemotright
ENCODING 187
SWIDTH 633 0
DWIDTH 5 0
BBX 5 4 0 0
BITMAP
50
78
50
A0
ENDCHAR
STARTCHAR onequarter
ENCODING 188
SWIDTH 1089 0
DWIDTH 8 0
BBX 7 6 3 0
BITMAP
C6
4C
98
36
6E
C4
ENDCHAR
STARTCHAR onehalf
ENCODING 189
SWIDTH 1089 0
DWIDTH 8 0
BBX 7 6 3 0
BITMAP
C6
4C
98
36
66
CE
ENDCHAR
STARTCHAR threequarters
ENCODING 190
SWIDTH 1149 0
DWIDTH 8 0
BBX 7 6 3 0
BITMAP
66
4C
F8
36
6E
C4
ENDCHAR
STARTCHAR questiondown
ENCODING 191
SWIDTH 539 0
DWIDTH 4 0
BBX 4 6 0 -2
BITMAP
30
00
30
40
80
F0
ENDCHAR
STARTCHAR Agrave
ENCODING 192
SWIDTH 771 0
DWIDTH 6 0
BBX 6 7 0 0
BITMAP
18
18
28
28
3C
4C
8C
ENDCHAR
STARTCHAR Aacute
ENCODING 193
SWIDTH 771 0
DWIDTH 6 0
BBX 6 7 0 0
BITMAP
0C
18
28
28
3C
4C
8C
ENDCHAR
STARTCHAR Acircumflex
ENCODING 194
SWIDTH 771 0
DWIDTH 6 0
BBX 6 7 0 0
BITMAP
1C
18
28
28
3C
4C
8C
ENDCHAR
STARTCHAR Atilde
ENCODING 195
SWIDTH 771 0
DWIDTH 6 0
BBX 6 7 0 0
BITMAP
1C
18
28
28
3C
4C
8C
ENDCHAR
STARTCHAR Adieresis
ENCODING 196
SWIDTH 771 0
DWIDTH 6 0
BBX 6 7 0 0
BITMAP
14
18
28
28
3C
4C
8C
ENDCHAR
STARTCHAR Aring
ENCODING 197
SWIDTH 771 0
DWIDTH 6 0
BBX 6 8 0 0
BITMAP
08
14
18
28
28
3C
4C
8C
ENDCHAR
STARTCHAR AE
ENCODING 198
SWIDTH 1004 0
DWIDTH 8 0
BBX 9 6 0 0
BITMAP
0F80
1C00
3F00
3C00
4C00
CF00
ENDCHAR
STARTCHAR Ccedilla
ENCODING 199
SWIDTH 737 0
DWIDTH 6 0
BBX 6 8 1 -2
BITMAP
3C
40
80
80
C0
78
40
60
ENDCHAR
STARTCHAR Egrave
ENCODING 200
SWIDTH 642 0
DWIDTH 5 0
BBX 5 7 1 0
BITMAP
10
78
40
70
C0
C0
F0
ENDCHAR
STARTCHAR Eacute
ENCODING 201
SWIDTH 642 0
DWIDTH 5 0
BBX 5 7 1 0
BITMAP
20
78
40
70
C0
C0
F0
ENDCHAR
STARTCHAR Ecircumflex
ENCODING 202
SWIDTH 642 0
DWIDTH 5 0
BBX 5 7 1 0
BITMAP
18
78
40
70
C0
C0
F0
ENDCHAR
STARTCHAR Edieresis
ENCODING 203
SWIDTH 642 0
DWIDTH 5 0
BBX 5 7 1 0
BITMAP
28
78
40
70
C0
C0
F0
ENDCHAR
STARTCHAR Igrave
ENCODING 204
SWIDTH 361 0
DWIDTH 3 0
BBX 3 7 1 0
BITMAP
60
60
60
40
40
C0
C0
ENDCHAR
STARTCHAR Iacute
ENCODING 205
SWIDTH 361 0
DWIDTH 3 0
BBX 3 7 1 0
BITMAP
60
60
60
40
40
C0
C0
ENDCHAR
STARTCHAR Icircumflex
ENCODING 206
SWIDTH 361 0
DWIDTH 3 0
BBX 4 7 1 0
BITMAP
70
60
60
40
40
C0
C0
ENDCHAR
STARTCHAR Idieresis
ENCODING 207
SWIDTH 361 0
DWIDTH 3 0
BBX 4 7 1 0
BITMAP
50
60
60
40
40
C0
C0
ENDCHAR
STARTCHAR Eth
ENCODING 208
SWIDTH 822 0
DWIDTH 7 0
BBX 7 6 0 0
BITMAP
7E
62
FA
42
44
F8
ENDCHAR
STARTCHAR Ntilde
ENCODING 209
SWIDTH 789 0
DWIDTH 6 0
BBX 6 7 1 0
BITMAP
38
44
64
6C
D8
98
88
ENDCHAR
STARTCHAR Ograve
ENCODING 210
SWIDTH 855 0
DWIDTH 7 0
BBX 5 7 1 0
BITMAP
10
38
48
88
88
98
70
ENDCHAR
STARTCHAR Oacute
ENCODING 211
SWIDTH 855 0
DWIDTH 7 0
BBX 5 7 1 0
BITMAP
10
38
48
88
88
98
70
ENDCHAR
STARTCHAR Ocircumflex
ENCODING 212
SWIDTH 855 0
DWIDTH 7 0
BBX 5 7 1 0
BITMAP
18
38
48
88
88
98
70
ENDCHAR
STARTCHAR Otilde
ENCODING 213
SWIDTH 855 0
DWIDTH 7 0
BBX 5 7 1 0
BITMAP
38
38
48
88
88
98
70
ENDCHAR
STARTCHAR Odieresis
ENCODING 214
SWIDTH 855 0
DWIDTH 7 0
BBX 5 7 1 0
BITMAP
28
38
48
88
88
98
70
ENDCHAR
STARTCHAR multiply
ENCODING 215
SWIDTH 687 0
DWIDTH 5 0
BBX 5 5 1 0
BITMAP
48
30
20
60
90
ENDCHAR
STARTCHAR Oslash
ENCODING 216
SWIDTH 855 0
DWIDTH 7 0
BBX 7 6 2 0
BITMAP
1E
24
54
64
4C
B8
ENDCHAR
STARTCHAR Ugrave
ENCODING 217
SWIDTH 759 0
DWIDTH 6 0
BBX 6 7 1 0
BITMAP
30
4C
4C
C8
88
98
70
ENDCHAR
STARTCHAR Uacute
ENCODING 218
SWIDTH 759 0
DWIDTH 6 0
BBX 6 7 1 0
BITMAP
18
4C
4C
C8
88
98
70
ENDCHAR
STARTCHAR Ucircumflex
ENCODING 219
SWIDTH 759 0
DWIDTH 6 0
BBX 6 7 1 0
BITMAP
38
4C
4C
C8
88
98
70
ENDCHAR
STARTCHAR Udieresis
ENCODING 220
SWIDTH 759 0
DWIDTH 6 0
BBX 6 7 1 0
BITMAP
28
4C
4C
C8
88
98
70
ENDCHAR
STARTCHAR Yacute
ENCODING 221
SWIDTH 681 0
DWIDTH 5 0
BBX 5 7 1 0
BITMAP
30
98
50
60
60
40
40
ENDCHAR
STARTCHAR Thorn
ENCODING 222
SWIDTH 645 0
DWIDTH 5 0
BBX 5 6 1 0
BITMAP
60
78
48
C8
F0
C0
ENDCHAR
STARTCHAR germandbls
ENCODING 223
SWIDTH 708 0
DWIDTH 6 0
BBX 5 8 0 -2
BITMAP
38
78
50
58
48
F8
C0
C0
ENDCHAR
STARTCHAR agrave
ENCODING 224
SWIDTH 681 0
DWIDTH 5 0
BBX 5 5 1 0
BITMAP
10
78
D8
B0
D0
ENDCHAR
STARTCHAR aacute
ENCODING 225
SWIDTH 681 0
DWIDTH 5 0
BBX 5 5 1 0
BITMAP
10
78
D8
B0
D0
ENDCHAR
STARTCHAR acircumflex
ENCODING 226
SWIDTH 681 0
DWIDTH 5 0
BBX 5 5 1 0
BITMAP
18
78
D8
B0
D0
ENDCHAR
STARTCHAR atilde
ENCODING 227
SWIDTH 681 0
DWIDTH 5 0
BBX 5 5 1 0
BITMAP
38
78
D8
B0
D0
ENDCHAR
STARTCHAR adieresis
ENCODING 228
SWIDTH 681 0
DWIDTH 5 0
BBX 5 5 1 0
BITMAP
28
78
D8
B0
D0
ENDCHAR
STARTCHAR aring
ENCODING 229
SWIDTH 681 0
DWIDTH 5 0
BBX 5 6 1 0
BITMAP
10
28
78
D8
B0
D0
ENDCHAR
STARTCHAR ae
ENCODING 230
SWIDTH 987 0
DWIDTH 8 0
BBX 7 4 1 0
BITMAP
7E
DA
BC
DE
ENDCHAR
STARTCHAR ccedilla
ENCODING 231
SWIDTH 548 0
DWIDTH 4 0
BBX 4 6 1 -2
BITMAP
70
80
80
E0
80
C0
ENDCHAR
STARTCHAR egrave
ENCODING 232
SWIDTH 612 0
DWIDTH 5 0
BBX 4 5 1 0
BITMAP
10
70
E0
D0
F0
ENDCHAR
STARTCHAR eacute
ENCODING 233
SWIDTH 612 0
DWIDTH 5 0
BBX 4 5 1 0
BITMAP
20
70
E0
D0
F0
ENDCHAR
STARTCHAR ecircumflex
ENCODING 234
SWIDTH 612 0
DWIDTH 5 0
BBX 4 5 1 0
BITMAP
30
70
E0
D0
F0
ENDCHAR
STARTCHAR edieresis
ENCODING 235
SWIDTH 612 0
DWIDTH 5 0
BBX 4 5 1 0
BITMAP
50
70
E0
D0
F0
ENDCHAR
STARTCHAR igrave
ENCODING 236
SWIDTH 343 0
DWIDTH 3 0
BBX 3 5 1 0
BITMAP
60
40
C0
C0
80
ENDCHAR
STARTCHAR iacute
ENCODING 237
SWIDTH 343 0
DWIDTH 3 0
BBX 3 5 1 0
BITMAP
60
40
C0
C0
80
ENDCHAR
STARTCHAR icircumflex
ENCODING 238
SWIDTH 343 0
DWIDTH 3 0
BBX 3 5 1 0
BITMAP
E0
40
C0
C0
80
ENDCHAR
STARTCHAR idieresis
ENCODING 239
SWIDTH 343 0
DWIDTH 3 0
BBX 3 5 1 0
BITMAP
A0
40
C0
C0
80
ENDCHAR
STARTCHAR eth
ENCODING 240
SWIDTH 663 0
DWIDTH 5 0
BBX 4 7 1 0
BITMAP
20
60
70
70
90
90
E0
ENDCHAR
STARTCHAR ntilde
ENCODING 241
SWIDTH 675 0
DWIDTH 5 0
BBX 5 5 1 0
BITMAP
38
58
78
D0
D0
ENDCHAR
STARTCHAR ograve
ENCODING 242
SWIDTH 663 0
DWIDTH 5 0
BBX 4 5 1 0
BITMAP
10
70
90
90
E0
ENDCHAR
STARTCHAR oacute
ENCODING 243
SWIDTH 663 0
DWIDTH 5 0
BBX 4 5 1 0
BITMAP
20
70
90
90
E0
ENDCHAR
STARTCHAR ocircumflex
ENCODING 244
SWIDTH 663 0
DWIDTH 5 0
BBX 4 5 1 0
BITMAP
30
70
90
90
E0
ENDCHAR
STARTCHAR otilde
ENCODING 245
SWIDTH 663 0
DWIDTH 5 0
BBX 4 5 1 0
BITMAP
70
70
90
90
E0
ENDCHAR
STARTCHAR odieresis
ENCODING 246
SWIDTH 663 0
DWIDTH 5 0
BBX 4 5 1 0
BITMAP
50
70
90
90
E0
ENDCHAR
STARTCHAR divide
ENCODING 247
SWIDTH 687 0
DWIDTH 5 0
BBX 5 5 1 0
BITMAP
30
00
F8
00
60
ENDCHAR
STARTCHAR oslash
ENCODING 248
SWIDTH 663 0
DWIDTH 5 0
BBX 6 4 2 0
BITMAP
3C
58
68
F0
ENDCHAR
STARTCHAR ugrave
ENCODING 249
SWIDTH 675 0
DWIDTH 5 0
BBX 5 5 1 0
BITMAP
30
58
58
F0
D0
ENDCHAR
STARTCHAR uacute
ENCODING 250
SWIDTH 675 0
DWIDTH 5 0
BBX 5 5 1 0
BITMAP
30
58
58
F0
D0
ENDCHAR
STARTCHAR ucircumflex
ENCODING 251
SWIDTH 675 0
DWIDTH 5 0
BBX 5 5 1 0
BITMAP
38
58
58
F0
D0
ENDCHAR
STARTCHAR udieresis
ENCODING 252
SWIDTH 675 0
DWIDTH 5 0
BBX 5 5 1 0
BITMAP
28
58
58
F0
D0
ENDCHAR
STARTCHAR yacute
ENCODING 253
SWIDTH 633 0
DWIDTH 5 0
BBX 6 7 0 -2
BITMAP
18
44
68
68
70
20
C0
ENDCHAR
STARTCHAR thorn
ENCODING 254
SWIDTH 681 0
DWIDTH 5 0
BBX 5 8 0 -2
BITMAP
60
60
78
68
48
F0
C0
C0
ENDCHAR
STARTCHAR ydieresis
ENCODING 255
SWIDTH 633 0
DWIDTH 5 0
BBX 6 7 0 -2
BITMAP
28
44
68
68
70
20
C0
ENDCHAR
ENDFONT
